<svg width="112" height="32" viewBox="0 0 112 32" fill="none" xmlns="http://www.w3.org/2000/svg">
<g clip-path="url(#clip0_3201_28000)">
<path d="M5.80898 23.1866L2.4086 24.6168H2.04554V3.10168C2.04554 2.52068 1.86844 2.21677 0.814674 1.97543L0 1.79666V0.822353L5.95952 0.151962V10.4849C6.77419 9.54638 8.30614 8.5095 10.148 8.5095C13.6369 8.5095 16.6831 11.3967 16.6831 16.5631C16.6831 21.3989 13.5484 24.6793 9.49273 24.6793C8.01392 24.6793 6.57052 24.0089 5.81784 23.1866H5.80898ZM5.95952 11.2715V22.3911C6.56167 22.8469 7.25237 23.0257 8.04048 23.0257C10.4756 23.0257 12.3441 20.7196 12.3441 16.733C12.3441 12.9609 10.5111 10.5296 8.12903 10.5296C7.25237 10.5296 6.5351 10.771 5.95952 11.2626V11.2715Z" fill="#2C2920"/>
<path d="M19.0913 30.2659C19.0913 29.1129 20.0211 28.2905 21.739 27.7453C22.7927 27.4145 23.3949 27.1374 23.997 25.8324L24.7763 24.0983L18.9939 11.3341C18.7548 10.7888 18.5423 10.3598 17.4885 10.181L16.6738 10.0291V9.02794H25.1039V10.0291L24.2893 10.181C23.2355 10.3598 23.0584 10.7888 23.2975 11.3341L26.8838 19.4503L30.5587 11.3341C30.7978 10.7888 30.6473 10.3598 29.5935 10.181L28.7788 10.0291V9.02794H34.4993V10.0291L33.6846 10.181C32.6308 10.3598 32.4183 10.7888 32.1792 11.3341L24.1387 28.9251C23.085 31.2045 22.0932 31.9911 20.9154 31.9911C19.7377 31.9911 19.0824 31.1419 19.0824 30.257L19.0913 30.2659Z" fill="#2C2920"/>
<path d="M38.6267 23.124L40.6723 22.9721C41.8146 22.8827 42.1157 22.543 42.1157 21.3631V2.82458H41.6375C36.8469 2.82458 35.7665 3.06592 35.0138 5.53296L34.5002 7.20447H33.4199L33.8095 1.18883L41.85 1.2514H46.7292L54.7343 1.18883L55.1593 7.20447H54.079L53.5388 5.53296C52.7596 3.07486 51.7058 2.82458 46.9417 2.82458H46.4281V21.3631C46.4281 22.552 46.7292 22.8827 47.907 22.9721L49.9259 23.124V24.2771H38.6356V23.124H38.6267Z" fill="#2C2920"/>
<path d="M62.5005 21.971C62.5005 22.5788 62.6776 22.9453 63.7314 23.124L64.5461 23.276V24.2771H56.541V23.276L57.3557 23.124C58.4095 22.9453 58.5866 22.5788 58.5866 21.971V11.5754C58.5866 10.9944 58.4095 10.6369 57.3557 10.4223L56.541 10.2704V9.26927L62.5005 8.63464V21.971ZM57.7453 2.58324C57.7453 1.18883 58.9231 0 60.3045 0C61.6859 0 62.8636 1.18883 62.8636 2.58324C62.8636 3.97765 61.6859 5.16648 60.3045 5.16648C58.9231 5.16648 57.7453 3.97765 57.7453 2.58324V2.58324Z" fill="#2C2920"/>
<path d="M71.1167 5.74749L70.6385 17.8413C70.4614 22.552 70.426 22.8559 71.9048 23.0346L73.0471 23.1866V24.2771H65.9453V23.1866L67.0611 23.0346C68.5399 22.8201 68.5399 22.552 68.7435 17.8413L69.3723 4.16537C69.4342 2.97654 69.0712 2.64581 67.8934 2.49386L66.7777 2.3419V1.24246H73.5785L80.9814 17.6805L88.0301 1.24246H94.9282V2.33296L93.7859 2.48492C92.6436 2.63688 92.254 2.9676 92.3071 4.15643L93.1484 21.3542C93.2103 22.543 93.5114 22.8737 94.6537 23.0257L95.796 23.1777V24.2682H86.3122V23.1777L87.4279 23.0257C88.6057 22.8737 88.9067 22.543 88.8447 21.3542L88.0921 5.73855L80.087 24.5184H79.5468L71.1167 5.73855V5.74749Z" fill="#2C2920"/>
<path d="M95.8047 16.5899C95.8047 11.8793 99.0899 8.50949 103.898 8.50949C108.707 8.50949 112.001 11.8793 112.001 16.5899C112.001 21.3006 108.689 24.6704 103.898 24.6704C99.1077 24.6704 95.8047 21.3006 95.8047 16.5899ZM107.724 17.6536C107.724 13.9799 106.493 9.96647 103.686 9.96647C101.755 9.96647 100.046 11.3609 100.046 15.5263C100.046 19.2 101.277 23.2134 104.111 23.2134C106.006 23.2134 107.724 21.819 107.724 17.6536Z" fill="#2C2920"/>
</g>
<defs>
<clipPath id="clip0_3201_28000">
<rect width="112" height="32" fill="white"/>
</clipPath>
</defs>
</svg>
